<?xml version="1.0" standalone="no"?><!DOCTYPE svg PUBLIC "-//W3C//DTD SVG 1.1//EN" "http://www.w3.org/Graphics/SVG/1.1/DTD/svg11.dtd"><svg t="1596370157345" class="icon" viewBox="0 0 1024 1024" version="1.1" xmlns="http://www.w3.org/2000/svg" p-id="7512" xmlns:xlink="http://www.w3.org/1999/xlink" width="200" height="200"><defs><style type="text/css"></style></defs><path d="M840.704 791.854545H300.823273c-39.726545 0-54.690909-40.354909-57.018182-61.719272L176.989091 161.466182c-1.256727-10.728727-6.493091-19.828364-14.382546-24.948364-4.212364-2.746182-8.215273-4.189091-11.915636-4.049454h-81.687273V91.229091H150.341818c11.682909-0.721455 23.505455 3.397818 34.746182 10.705454 18.176 11.822545 30.161455 31.767273 32.861091 54.714182l66.839273 568.832c0.023273 0.279273 3.607273 25.111273 16.034909 25.111273h539.880727v41.262545z" p-id="7513"></path><path d="M796.904727 676.328727H258.885818v-41.239272h538.018909c12.218182 0 23.272727-8.494545 27.461818-21.178182a18598.167273 18598.167273 0 0 1 48.407273-143.080728c20.689455-60.741818 41.681455-122.368 53.201455-157.486545 8.029091-24.576 8.610909-43.426909 1.605818-53.085091-6.213818-8.541091-18.106182-9.076364-18.222546-9.076364H205.940364V209.92h703.394909c3.351273 0 33.210182 0.744727 51.618909 26.112 15.406545 21.248 16.826182 51.549091 4.189091 90.112-11.52 35.234909-32.581818 97.047273-53.364364 157.975273a18394.810182 18394.810182 0 0 0-48.267636 142.708363c-9.774545 29.626182-36.538182 49.501091-66.606546 49.501091zM335.406545 921.064727a85.317818 85.317818 0 0 1-85.224727-85.224727c0-46.987636 38.237091-85.224727 85.224727-85.224727s85.224727 38.237091 85.224728 85.224727a85.317818 85.317818 0 0 1-85.224728 85.224727z m0-129.210182c-24.250182 0-43.985455 19.712-43.985454 43.962182s19.735273 43.985455 43.985454 43.985455c24.250182 0 43.985455-19.735273 43.985455-43.985455s-19.735273-43.962182-43.985455-43.962182zM817.966545 921.064727a85.317818 85.317818 0 0 1-85.224727-85.224727 85.317818 85.317818 0 0 1 85.224727-85.224727 85.317818 85.317818 0 0 1 85.224728 85.224727 85.294545 85.294545 0 0 1-85.224728 85.224727z m0-129.210182c-24.250182 0-43.985455 19.712-43.985454 43.962182s19.735273 43.985455 43.985454 43.985455 43.985455-19.735273 43.985455-43.985455-19.735273-43.962182-43.985455-43.962182z" p-id="7514"></path></svg>